<?xml version="1.0" encoding="UTF-8"?>
<!DOCTYPE svg PUBLIC "-//W3C//DTD SVG 1.1//EN" "http://www.w3.org/Graphics/SVG/1.1/DTD/svg11.dtd">
<!-- Creator: CorelDRAW 2019 (64 Bit) -->
<svg xmlns="http://www.w3.org/2000/svg" xml:space="preserve" width="21.0459mm" height="22.5mm" version="1.1" style="shape-rendering:geometricPrecision; text-rendering:geometricPrecision; image-rendering:optimizeQuality; fill-rule:evenodd; clip-rule:evenodd"
viewBox="0 0 89.89 96.1"
 xmlns:xlink="http://www.w3.org/1999/xlink">
 <defs>
  <style type="text/css">
   <![CDATA[
    .fil0 {fill:#DCF9FF}
    .fil3 {fill:white;fill-rule:nonzero}
    .fil1 {fill:url(#id0)}
    .fil2 {fill:url(#id1)}
   ]]>
  </style>
  <linearGradient id="id0" gradientUnits="userSpaceOnUse" x1="42.98" y1="9.11" x2="42.6" y2="42.93">
   <stop offset="0" style="stop-opacity:1; stop-color:#A5A7A7"/>
   <stop offset="0.454902" style="stop-opacity:1; stop-color:#8E8F8F"/>
   <stop offset="0.678431" style="stop-opacity:1; stop-color:#929494"/>
   <stop offset="1" style="stop-opacity:1; stop-color:#777777"/>
  </linearGradient>
  <linearGradient id="id1" gradientUnits="userSpaceOnUse" x1="19.57" y1="43.86" x2="66" y2="79.49">
   <stop offset="0" style="stop-opacity:1; stop-color:#FFB35B"/>
   <stop offset="1" style="stop-opacity:1; stop-color:#FF9268"/>
  </linearGradient>
 </defs>
 <g id="Camada_x0020_1">
  <metadata id="CorelCorpID_0Corel-Layer"/>
  <g id="_2279553480320">
   <g>
    <path class="fil0" d="M10.38 0c3.28,0 5.93,2.66 5.93,5.93 0,3.28 -2.66,5.93 -5.93,5.93 -3.28,0 -5.93,-2.66 -5.93,-5.93 0,-3.28 2.66,-5.93 5.93,-5.93z"/>
    <path class="fil0" d="M20.92 86.52l1.55 0 -0.8 -8.69 -13.86 0c-2.49,0 -4.53,-2.04 -4.53,-4.53l0 -1.61c0,-2.49 2.04,-4.53 4.53,-4.53l12.87 0 -0.47 -5.09 1.7 -7.03 -15.75 0c-3.38,0 -6.15,-2.77 -6.15,-6.15l0 -2.19c0,-2.93 2.08,-5.4 4.83,-6l12.03 0c2.56,0 4.66,-2.1 4.66,-4.66l0 -0c0,-2.56 -2.1,-4.66 -4.66,-4.66l-7.22 0c-2.02,-0.45 -3.55,-2.27 -3.55,-4.42l0 -1.61c0,-2.49 2.04,-4.53 4.53,-4.53l19.06 0 8.6 -8.79 -9.8 0c-2.8,0 -5.09,-2.29 -5.09,-5.09l0 -1.81c0,-2.8 2.29,-5.09 5.09,-5.09l37.01 0c2.8,0 5.09,2.29 5.09,5.09l0 1.81c0,2.8 -2.29,5.09 -5.09,5.09l-16.05 0 11.87 12.74 22.69 0c2.8,0 5.09,2.29 5.09,5.09l0 1.81c0,2.8 -2.29,5.09 -5.09,5.09l-22.69 0 0 30.4 16.59 0c2.49,0 4.53,2.04 4.53,4.53l0 1.61c0,2.49 -2.04,4.53 -4.53,4.53l-16.59 0 0 8.69 8.46 0c2.14,0 3.9,1.75 3.9,3.9l0 1.39c0,2.14 -1.75,3.9 -3.9,3.9l-48.85 0c-2.14,0 -3.9,-1.75 -3.9,-3.9l0 -1.39c0,-2.14 1.75,-3.9 3.9,-3.9z"/>
    <path class="fil0" d="M6.97 85.97c2.8,0 5.06,2.27 5.06,5.06 0,2.8 -2.27,5.06 -5.06,5.06 -2.8,0 -5.06,-2.27 -5.06,-5.06 0,-2.8 2.27,-5.06 5.06,-5.06z"/>
    <path class="fil0" d="M84.82 49.32c2.8,0 5.06,2.27 5.06,5.06 0,2.8 -2.27,5.06 -5.06,5.06 -2.8,0 -5.06,-2.27 -5.06,-5.06 0,-2.8 2.27,-5.06 5.06,-5.06z"/>
   </g>
   <g>
    <path class="fil1" d="M22.13 42.94l7.48 0 0 -12.99c0,-7.24 5.93,-13.17 13.17,-13.17l0 0c7.24,0 13.17,5.93 13.17,13.17l0 12.99 7.48 0 0 -13.17c0,-11.36 -9.29,-20.65 -20.65,-20.65l-0 0c-11.36,0 -20.65,9.29 -20.65,20.65l0 13.17z"/>
    <path class="fil2" d="M69.3 86.52l-53.03 0c-2.78,0 -5.06,-2.28 -5.06,-5.06l0 -33.1c0,-6.34 5.19,-11.52 11.52,-11.52l40.11 0c6.34,0 11.53,5.19 11.53,11.53l0 33.1c0,2.78 -2.28,5.06 -5.06,5.06z"/>
    <path class="fil3" d="M33.96 55.09c0,-1.23 0.36,-2.47 1.08,-3.74 0.72,-1.26 1.77,-2.31 3.14,-3.13 1.38,-0.83 2.98,-1.24 4.82,-1.24 1.71,0 3.21,0.34 4.52,1.04 1.3,0.69 2.31,1.63 3.02,2.82 0.71,1.19 1.07,2.48 1.07,3.88 0,1.1 -0.2,2.07 -0.61,2.9 -0.4,0.83 -0.89,1.54 -1.45,2.14 -0.55,0.6 -1.56,1.62 -3,3.04 -0.4,0.4 -0.72,0.75 -0.96,1.05 -0.24,0.3 -0.42,0.58 -0.54,0.83 -0.12,0.25 -0.21,0.5 -0.28,0.76 -0.06,0.25 -0.16,0.7 -0.29,1.33 -0.22,1.35 -0.92,2.01 -2.1,2.01 -0.61,0 -1.13,-0.22 -1.54,-0.66 -0.42,-0.44 -0.63,-1.09 -0.63,-1.96 0,-1.09 0.15,-2.03 0.46,-2.82 0.31,-0.79 0.71,-1.49 1.22,-2.09 0.51,-0.6 1.19,-1.32 2.05,-2.15 0.75,-0.72 1.3,-1.27 1.63,-1.64 0.34,-0.37 0.62,-0.78 0.85,-1.23 0.23,-0.45 0.34,-0.95 0.34,-1.48 0,-1.03 -0.35,-1.91 -1.05,-2.62 -0.71,-0.71 -1.6,-1.07 -2.71,-1.07 -1.3,0 -2.25,0.36 -2.86,1.08 -0.61,0.72 -1.13,1.78 -1.55,3.17 -0.4,1.46 -1.16,2.19 -2.28,2.19 -0.66,0 -1.22,-0.25 -1.67,-0.77 -0.45,-0.51 -0.68,-1.06 -0.68,-1.66zm8.61 21.27c-0.72,0 -1.34,-0.26 -1.88,-0.77 -0.54,-0.51 -0.8,-1.23 -0.8,-2.15 0,-0.82 0.26,-1.5 0.78,-2.05 0.52,-0.56 1.15,-0.83 1.9,-0.83 0.74,0 1.37,0.28 1.87,0.83 0.51,0.56 0.76,1.24 0.76,2.05 0,0.91 -0.27,1.62 -0.8,2.14 -0.53,0.52 -1.14,0.78 -1.84,0.78z"/>
   </g>
  </g>
 </g>
</svg>
